<?xml version="1.0" encoding="utf-8"?>
<!-- Generator: Adobe Illustrator 18.1.1, SVG Export Plug-In . SVG Version: 6.00 Build 0)  -->
<svg version="1.1" id="Layer_1" xmlns="http://www.w3.org/2000/svg" xmlns:xlink="http://www.w3.org/1999/xlink" x="0px" y="0px"
	 viewBox="0 0 612 792" enable-background="new 0 0 612 792" xml:space="preserve">
<g>
	<path fill="#FFFFFF" d="M413,715c-73.7,0-147.3,0-221,0c-0.4-0.3-0.7-0.7-1.2-0.8c-20-4.8-28.5-13.8-31.7-34.7
		c-7.8-51.7-15.4-103.4-23.1-155.1c-6.6-44.1-13.1-88.3-19.7-132.4c-1.3-9-2.6-18-3.9-27.7c15,0,29.1,0,43.2,0
		c-3.6-9.1-7-17.7-10.5-26.7c-4,0.7-8.4,1.5-13.2,2.4c-1.8-9.1-3.5-18-5.3-27c5.7-1.1,10.6-2.2,15.5-3.1c2.9-0.5,4.4-1.7,5.2-4.9
		c14.1-53.8,78-74.1,120.5-38.3c4.9,4.1,9,9.2,13.8,14.1c9.2-5.5,19.5-7.4,30.6-5.8c0.5-1.6,1-3,1.4-4.4
		c8.9-29.3,28.4-47.7,58.3-53.3c30.2-5.7,54.9,5,74,29.1c1,1.2,3.5,2,5.2,1.8c5.2-0.6,10.4-1.8,16-2.9c1.8,9.2,3.5,18.1,5.3,27.1
		c-4.8,1-9,1.9-13.1,2.8c4.9,44.7-14.3,73.7-55.9,89.2c29.7,0,59.4,0,89.4,0c-0.2,1.5-0.2,2.3-0.3,3
		c-7.7,51.9-15.5,103.7-23.2,155.6c-7.8,52.5-15.5,105.1-23.4,157.6c-2.5,16.9-11.6,28.3-28.7,32.7C415.7,713.7,414.4,714.4,413,715
		z M375,661.7c-0.3,9.3,5.3,15.9,13.6,16.8c7.8,0.9,14.7-4.5,16.1-13.1c2.5-15.5,4.9-30.9,7.1-46.4c8.4-59.9,16.6-119.8,24.9-179.6
		c1.1-7.6-2.8-14.4-10-17c-8.9-3.3-18.3,2.1-19.8,11.9c-3.4,22.4-6.7,44.8-9.8,67.2c-5.3,37.9-10.5,75.9-15.8,113.8
		C379.2,630.9,377.1,646.6,375,661.7z M225.8,662.3c-1.1-8.2-2.3-17.1-3.5-26c-7.5-53.1-15-106.2-22.4-159.2
		c-2-14.2-3.7-28.4-6-42.5c-1.5-9-8.8-14.2-17.2-12.9c-8.9,1.4-13.6,7.7-12.7,17.2c0.2,2,0.4,4,0.7,6
		c7.8,56.1,15.7,112.1,23.5,168.2c2.4,17.5,4.8,35,7.4,52.4c1.3,8.8,8.3,14.2,16.5,13.3C220.3,677.7,226,671.3,225.8,662.3z
		 M280.3,549.6c-0.1-2-0.2-4-0.3-6c-1.7-36.1-3.3-72.1-5-108.2c-0.3-7-4.8-11.8-11.9-13.5c-6.4-1.5-13.6,1-16.2,6.8
		c-1.6,3.6-2.1,8-1.9,12c1.6,37.2,3.4,74.5,5.1,111.7c1.7,37.4,3.4,74.8,5.2,112.2c0.3,6.9,4.4,11.6,10.9,13.2
		c11.5,2.9,20-4.6,19.4-17.1C283.7,623.7,282,586.6,280.3,549.6z M350.8,548.8c0,0-0.1,0-0.1,0c0.5-10.3,1.1-20.6,1.5-30.9
		c1.3-26.8,2.7-53.5,3.8-80.3c0.4-9.3-6-15.8-14.8-16c-8.5-0.2-14.9,5.6-15.4,14.9c-0.9,16.1-1.6,32.3-2.3,48.4
		c-1.9,41.7-3.8,83.5-5.7,125.2c-0.8,17.3-1.8,34.6-2.6,51.9c-0.4,8.9,6.1,16.3,14.4,16.8c8.4,0.5,15.1-5.5,15.5-14.6
		C347,625.6,348.8,587.2,350.8,548.8z M368.7,364.1c-0.8-0.6-1.1-1-1.5-1.1c-29.1-8.2-47.3-27-54.7-56.3c-0.2-0.9-0.6-2.2-1.2-2.6
		c-4.6-2.5-9.2-2-13.8,0.1c-4.1,1.8-4.4,4.8-4.3,8.9c0.2,9.1,0.5,18.3-1.2,27.2c-1.5,8.1-5.4,15.8-8.4,23.9
		C311.5,364.1,339.8,364.1,368.7,364.1z"/>
	<path fill="#FFFFFF" d="M517,215c-1.2,2.7-1.6,6.2-3.7,7.8c-2.3,1.8-6.2,3-9,2.5c-43.1-7.7-86.1-15.7-129.1-23.6
		C318.1,191.1,261.1,180.5,204,170c-31.2-5.8-62.5-11.5-93.7-17.4c-3.3-0.6-6.9-2.1-9.2-4.3c-1.6-1.6-2.3-5.3-1.7-7.7
		c4-17.9,19.4-30.2,37.9-30.3c3.9,0,6.7-1,9.6-4c8.3-8.9,18.4-11.4,30.5-9c24,4.9,48,9.1,72.1,13.6c0.5,0.1,1,0,1.6,0
		c1.3-4.5,2.3-9,3.8-13.3c4.7-13,17.6-20.8,31.3-18.4c25.9,4.6,51.8,9,77.5,14.4c14.5,3.1,24.7,14.5,22.9,31.5
		c-0.4,3.4-1,6.9-1.6,10.8c12.8,2.4,25.3,4.8,37.8,7.1c13.1,2.4,26.2,4.8,39.3,7.2c11.5,2.1,19.1,8.6,22.9,19.8
		c0.6,1.9,2.5,4.2,4.2,4.8c15.3,5.3,24.1,15.9,27.1,31.6c0.1,0.6,0.5,1.1,0.8,1.7C517,210.3,517,212.7,517,215z"/>
</g>
</svg>
