<?xml version="1.0" standalone="no"?>
<!DOCTYPE svg PUBLIC "-//W3C//DTD SVG 20010904//EN"
 "http://www.w3.org/TR/2001/REC-SVG-20010904/DTD/svg10.dtd">
<svg version="1.0" xmlns="http://www.w3.org/2000/svg"
 width="249.000000pt" height="354.000000pt" viewBox="0 0 249.000000 354.000000"
 preserveAspectRatio="xMidYMid meet">

<g transform="translate(0.000000,354.000000) scale(0.100000,-0.100000)"
fill="#000000" stroke="none">
<path d="M1003 3509 c-49 -24 -81 -69 -91 -131 -6 -29 -13 -42 -22 -41 -8 1
-110 18 -227 38 -286 47 -312 47 -369 -14 -18 -19 -39 -31 -55 -31 -88 0 -183
-62 -220 -144 -24 -52 -24 -79 0 -100 14 -12 314 -66 1207 -217 654 -110 1200
-198 1214 -197 34 4 52 42 46 100 -9 88 -71 171 -150 199 -26 9 -39 22 -46 45
-12 34 -65 88 -97 98 -10 3 -112 21 -228 41 -115 19 -222 38 -237 41 -27 5
-28 7 -22 58 5 41 2 63 -14 99 -35 78 -63 90 -335 136 -130 23 -254 41 -275
41 -20 0 -56 -9 -79 -21z m325 -135 c119 -20 228 -43 241 -51 20 -13 23 -21
18 -55 -3 -22 -7 -41 -9 -43 -1 -1 -128 18 -281 43 l-278 47 7 30 c11 51 23
65 55 65 17 0 128 -16 247 -36z"/>
<path d="M1553 2742 c-66 -23 -126 -65 -164 -113 -35 -44 -75 -130 -84 -179
l-6 -35 -67 0 c-55 0 -75 -5 -114 -28 -45 -26 -47 -26 -53 -8 -3 11 -33 44
-65 75 -158 146 -395 137 -540 -20 -45 -49 -84 -126 -95 -187 -7 -34 -11 -38
-45 -43 -56 -9 -62 -16 -55 -58 l7 -37 42 6 42 7 11 -44 c6 -23 14 -53 18 -65
l7 -23 -152 0 -152 0 6 -27 c3 -16 35 -217 71 -448 213 -1368 212 -1361 236
-1404 28 -50 79 -87 139 -100 28 -7 284 -11 686 -11 728 0 712 -2 781 73 22
24 45 59 52 78 8 25 291 1807 291 1834 0 3 -125 5 -277 6 l-278 0 45 20 c146
65 239 221 227 383 -2 39 -8 78 -12 88 -5 13 2 17 35 23 37 6 41 10 36 29 -3
11 -6 29 -6 39 0 16 -6 18 -52 12 l-53 -7 -48 56 c-33 38 -67 65 -114 88 -59
29 -79 33 -158 36 -67 2 -103 -2 -142 -16z m-265 -424 c6 -7 19 -39 30 -71 38
-107 132 -207 227 -241 37 -13 19 -14 -207 -15 l-247 -1 16 43 c11 27 17 78
18 142 1 55 3 105 4 112 3 34 135 59 159 31z m-754 -521 c15 -11 33 -120 112
-678 52 -365 94 -676 94 -690 0 -57 -79 -78 -99 -26 -11 28 -191 1303 -191
1350 0 51 44 73 84 44z m480 0 c23 -17 22 2 51 -662 14 -308 27 -597 31 -642
5 -74 4 -83 -15 -102 -26 -26 -42 -26 -70 -3 -20 16 -22 35 -41 442 -11 234
-25 514 -30 623 -14 277 -13 322 6 341 19 19 44 20 68 3z m485 -6 c17 -17 19
-30 15 -93 -3 -40 -18 -347 -34 -681 -25 -540 -30 -611 -46 -628 -22 -25 -49
-24 -75 2 -18 18 -20 28 -14 112 4 51 19 356 34 680 25 527 30 589 46 607 23
25 50 25 74 1z m476 5 c13 -9 19 -25 18 -47 -2 -59 -183 -1323 -193 -1346 -5
-12 -18 -24 -30 -28 -28 -9 -70 19 -70 48 0 12 42 320 94 685 98 688 101 702
146 702 9 0 25 -6 35 -14z"/>
</g>
</svg>
